{
  "accessors": [
    {
      "bufferView": 2,
      "componentType": 5126,
      "count": 737,
      "max": [
        3.8313090801239014,
        -0.10756800323724747,
        3.2981150150299072
      ],
      "min": [
        -3.8212239742279053,
        -1.5089160203933716,
        -1.6672780513763428
      ],
      "type": "VEC3"
    },
    {
      "bufferView": 2,
      "byteOffset": 8844,
      "componentType": 5126,
      "count": 737,
      "max": [
        1.0,
        1.0,
        1.0
      ],
      "min": [
        -1.0,
        -1.0,
        -1.0
      ],
      "type": "VEC3"
    },
    {
      "bufferView": 3,
      "componentType": 5126,
      "count": 737,
      "max": [
        1.0,
        0.9999856352806091,
        1.0,
        1.0
      ],
      "min": [
        -1.0,
        -0.9999904036521912,
        -1.0,
        1.0
      ],
      "type": "VEC4"
    },
    {
      "bufferView": 1,
      "componentType": 5126,
      "count": 737,
      "max": [
        0.9970909953117371,
        0.9962890148162842
      ],
      "min": [
        0.002788000041618943,
        0.004435000009834766
      ],
      "type": "VEC2"
    },
    {
      "bufferView": 0,
      "componentType": 5125,
      "count": 1734,
      "type": "SCALAR"
    }
  ],
  "asset": {
    "extras": {
      "author": "Vanillatography (https://sketchfab.com/vanillatography)",
      "license": "CC-BY-4.0 (http://creativecommons.org/licenses/by/4.0/)",
      "source": "https://sketchfab.com/3d-models/nes-controller-wcg-5262bfa778d548549c7edac75ea14d09",
      "title": "NES Controller - WCG"
    },
    "generator": "Sketchfab-12.67.0",
    "version": "2.0"
  },
  "bufferViews": [
    {
      "buffer": 0,
      "byteLength": 6936,
      "name": "floatBufferViews",
      "target": 34963
    },
    {
      "buffer": 0,
      "byteLength": 5896,
      "byteOffset": 6936,
      "byteStride": 8,
      "name": "floatBufferViews",
      "target": 34962
    },
    {
      "buffer": 0,
      "byteLength": 17688,
      "byteOffset": 12832,
      "byteStride": 12,
      "name": "floatBufferViews",
      "target": 34962
    },
    {
      "buffer": 0,
      "byteLength": 11792,
      "byteOffset": 30520,
      "byteStride": 16,
      "name": "floatBufferViews",
      "target": 34962
    }
  ],
  "buffers": [
    {
      "byteLength": 42312,
      "uri": "scene.bin"
    }
  ],
  "images": [
    {
      "uri": "textures/phong6SG_baseColor.png"
    },
    {
      "uri": "textures/phong6SG_metallicRoughness.png"
    },
    {
      "uri": "textures/phong6SG_normal.png"
    }
  ],
  "materials": [
    {
      "doubleSided": true,
      "name": "phong6SG",
      "normalTexture": {
        "index": 2
      },
      "occlusionTexture": {
        "index": 1
      },
      "pbrMetallicRoughness": {
        "baseColorTexture": {
          "index": 0
        },
        "metallicFactor": 0.0,
        "metallicRoughnessTexture": {
          "index": 1
        },
        "roughnessFactor": 0.333
      }
    }
  ],
  "meshes": [
    {
      "name": "Object_0",
      "primitives": [
        {
          "attributes": {
            "NORMAL": 1,
            "POSITION": 0,
            "TANGENT": 2,
            "TEXCOORD_0": 3
          },
          "indices": 4,
          "material": 0,
          "mode": 4
        }
      ]
    }
  ],
  "nodes": [
    {
      "children": [
        1
      ],
      "matrix": [
        1.0,
        0.0,
        0.0,
        0.0,
        0.0,
        2.220446049250313e-16,
        -1.0,
        0.0,
        0.0,
        1.0,
        2.220446049250313e-16,
        0.0,
        0.0,
        0.0,
        0.0,
        1.0
      ],
      "name": "Sketchfab_model"
    },
    {
      "children": [
        2
      ],
      "name": "d46f186172324356af0d99c074bc0f98.obj.cleaner.materialmerger.gles"
    },
    {
      "mesh": 0,
      "name": "Object_2"
    }
  ],
  "samplers": [
    {
      "magFilter": 9729,
      "minFilter": 9987,
      "wrapS": 10497,
      "wrapT": 10497
    }
  ],
  "scene": 0,
  "scenes": [
    {
      "name": "Sketchfab_Scene",
      "nodes": [
        0
      ]
    }
  ],
  "textures": [
    {
      "sampler": 0,
      "source": 0
    },
    {
      "sampler": 0,
      "source": 1
    },
    {
      "sampler": 0,
      "source": 2
    }
  ]
}
